<?xml version="1.0" standalone="no"?>
<!DOCTYPE svg PUBLIC "-//W3C//DTD SVG 20010904//EN"
 "http://www.w3.org/TR/2001/REC-SVG-20010904/DTD/svg10.dtd">
<svg version="1.0" xmlns="http://www.w3.org/2000/svg"
 width="512.000000pt" height="512.000000pt" viewBox="0 0 512.000000 512.000000"
 preserveAspectRatio="xMidYMid meet">
<metadata>
Created by potrace 1.14, written by Peter Selinger 2001-2017
</metadata>
<g transform="translate(0.000000,512.000000) scale(0.100000,-0.100000)"
fill="#000000" stroke="none">
<path d="M2415 5104 c-342 -34 -579 -92 -845 -206 -686 -294 -1216 -889 -1434
-1611 -148 -491 -142 -1047 19 -1532 309 -938 1123 -1612 2099 -1740 157 -20
506 -20 663 0 560 74 1080 331 1480 733 299 301 527 685 642 1085 74 256 75
265 79 686 3 379 3 384 -23 518 -177 914 -839 1662 -1723 1947 -245 79 -462
115 -732 120 -102 2 -203 2 -225 0z m225 -618 c25 -24 142 -128 260 -230 118
-103 216 -193 217 -199 1 -7 -22 -39 -51 -71 l-54 -59 -24 19 c-13 10 -106 91
-207 179 -100 88 -188 160 -195 160 -7 0 -201 -170 -432 -378 l-419 -379 -57
64 c-32 34 -57 66 -55 69 4 12 952 868 962 869 5 0 30 -20 55 -44z m822 -468
c57 -51 257 -231 446 -401 l342 -308 0 -918 0 -919 -842 -441 c-511 -268 -848
-440 -857 -436 -9 3 -391 202 -848 442 l-833 437 0 917 0 916 247 234 c135
129 314 298 397 377 l151 143 58 -63 c31 -34 57 -65 57 -68 0 -3 -164 -160
-365 -350 l-365 -345 3 -829 2 -830 749 -393 c413 -216 753 -393 758 -393 4 0
272 139 595 309 324 169 661 346 750 392 l163 84 0 830 0 830 -257 230 c-141
127 -302 271 -358 322 l-102 92 -169 -146 -168 -146 -58 64 c-32 35 -57 66
-57 69 1 7 443 389 451 389 4 1 53 -41 110 -91z m-1582 -1343 l0 -425 250 0
250 0 0 -105 0 -105 -375 0 -375 0 0 530 0 530 125 0 125 0 0 -425z m1422 47
c68 -27 126 -81 156 -144 27 -58 45 -169 37 -228 -10 -76 -59 -163 -125 -223
l-60 -53 106 -183 c58 -101 108 -189 111 -197 4 -12 -17 -14 -118 -14 l-124 0
-108 180 -108 180 -155 0 -154 0 0 -180 0 -180 -115 0 -115 0 0 528 c0 291 3
532 8 536 4 4 165 6 357 4 334 -4 353 -5 407 -26z"/>
<path d="M2742 2398 l3 -163 160 -3 c172 -3 241 6 286 39 84 59 81 199 -4 263
-26 20 -43 21 -238 24 l-210 3 3 -163z"/>
</g>
</svg>
