<svg width="237" height="49" viewBox="0 0 237 49" fill="none" xmlns="http://www.w3.org/2000/svg">
<g clip-path="url(#clip0_263_11)">
<path d="M19.4263 11.606H14.0031C13.743 11.606 13.5369 11.8106 13.5369 12.0688V34.8704C13.5369 35.1286 13.7479 35.3332 14.0031 35.3332C14.2632 35.3332 14.4694 35.1237 14.4694 34.8704V12.5317H18.9551V30.3003C18.9551 30.5585 19.1662 30.7632 19.4214 30.7632H29.8751V34.4027H17.0509C16.7908 34.4027 16.5846 34.6122 16.5846 34.8704C16.5846 35.1286 16.7957 35.3332 17.0509 35.3332H30.3463C30.6015 35.3332 30.8125 35.1237 30.8125 34.8704V30.3003C30.8125 30.0421 30.6015 29.8326 30.3463 29.8326H19.8925V12.0688C19.8925 11.8106 19.6815 11.606 19.4263 11.606Z" fill="#55FF00"/>
<path d="M19.4263 11.606H14.0031C13.743 11.606 13.5369 11.8106 13.5369 12.0688V34.8704C13.5369 35.1286 13.7479 35.3332 14.0031 35.3332C14.2632 35.3332 14.4694 35.1237 14.4694 34.8704V12.5317H18.9551V30.3003C18.9551 30.5585 19.1662 30.7632 19.4214 30.7632H29.8751V34.4027H17.0509C16.7908 34.4027 16.5846 34.6122 16.5846 34.8704C16.5846 35.1286 16.7957 35.3332 17.0509 35.3332H30.3463C30.6015 35.3332 30.8125 35.1237 30.8125 34.8704V30.3003C30.8125 30.0421 30.6015 29.8326 30.3463 29.8326H19.8925V12.0688C19.8925 11.8106 19.6815 11.606 19.4263 11.606Z" stroke="#55FF00" stroke-width="0.958568" stroke-miterlimit="10"/>
<path d="M37.0998 14.2512C36.8397 14.2512 36.6335 14.4607 36.6335 14.7189V34.8749C36.6335 35.1331 36.8446 35.3426 37.0998 35.3426H54.4049C54.665 35.3426 54.8711 35.1331 54.8711 34.8749V30.6459C54.8711 30.3877 54.6601 30.183 54.4049 30.183H42.4984V25.8225H53.2564C53.5117 25.8225 53.7227 25.613 53.7227 25.3596V20.9455C53.7227 20.6873 53.5117 20.4826 53.2564 20.4826H42.2727V16.2585H54.4049C54.665 16.2585 54.8711 16.049 54.8711 15.7908V12.0782C54.8711 11.82 54.6601 11.6154 54.4049 11.6154H37.0998C36.8397 11.6154 36.6335 11.8249 36.6335 12.0782C36.6335 12.3364 36.8446 12.5411 37.0998 12.5411H53.9337V15.3279H41.8015C41.5463 15.3279 41.3353 15.5374 41.3353 15.7908V20.9455C41.3353 21.2037 41.5463 21.4132 41.8015 21.4132H52.7902V24.8968H42.0322C41.7721 24.8968 41.5659 25.1063 41.5659 25.3596V30.6508C41.5659 30.909 41.777 31.1185 42.0322 31.1185H53.9386V34.4169H37.5709V14.714C37.5709 14.4558 37.3599 14.2512 37.0998 14.2512Z" fill="#55FF00"/>
<path d="M37.0998 14.2512C36.8397 14.2512 36.6335 14.4607 36.6335 14.7189V34.8749C36.6335 35.1331 36.8446 35.3426 37.0998 35.3426H54.4049C54.665 35.3426 54.8711 35.1331 54.8711 34.8749V30.6459C54.8711 30.3877 54.6601 30.183 54.4049 30.183H42.4984V25.8225H53.2564C53.5117 25.8225 53.7227 25.613 53.7227 25.3596V20.9455C53.7227 20.6873 53.5117 20.4826 53.2564 20.4826H42.2727V16.2585H54.4049C54.665 16.2585 54.8711 16.049 54.8711 15.7908V12.0782C54.8711 11.82 54.6601 11.6154 54.4049 11.6154H37.0998C36.8397 11.6154 36.6335 11.8249 36.6335 12.0782C36.6335 12.3364 36.8446 12.5411 37.0998 12.5411H53.9337V15.3279H41.8015C41.5463 15.3279 41.3353 15.5374 41.3353 15.7908V20.9455C41.3353 21.2037 41.5463 21.4132 41.8015 21.4132H52.7902V24.8968H42.0322C41.7721 24.8968 41.5659 25.1063 41.5659 25.3596V30.6508C41.5659 30.909 41.777 31.1185 42.0322 31.1185H53.9386V34.4169H37.5709V14.714C37.5709 14.4558 37.3599 14.2512 37.0998 14.2512Z" stroke="#55FF00" stroke-width="0.958568" stroke-miterlimit="10"/>
<path d="M68.5043 30.5342L68.4994 30.539L68.5043 30.5342ZM76.3863 30.5439V30.539V30.5439ZM75.1594 12.2978C75.1594 12.3027 75.1594 12.3027 75.1643 12.3075C75.1594 12.3075 75.1594 12.3027 75.1594 12.2978ZM69.6478 12.3075V12.3027V12.3075ZM67.6209 30.2175L66.0798 34.4026H63.6799C63.4198 34.4026 63.2136 34.6121 63.2136 34.8655C63.2136 35.1237 63.4247 35.3332 63.6799 35.3332H66.4038C66.6001 35.3332 66.7767 35.2114 66.8406 35.0263L68.4111 30.7583H76.4649L78.0059 34.9483C78.0894 35.1773 78.3151 35.3283 78.5556 35.3283H83.2671C83.4585 35.3283 83.6352 35.2358 83.7432 35.0847C83.8561 34.9337 83.8855 34.7339 83.8217 34.5537L76.0379 11.9957C75.9593 11.757 75.7385 11.5962 75.4784 11.5962H69.3092C69.0589 11.5962 68.8331 11.7521 68.7546 11.986L60.6125 34.7096C60.5241 34.9532 60.6517 35.2163 60.8971 35.304C60.9511 35.3235 61.0002 35.3332 61.0542 35.3332C61.2456 35.3332 61.4272 35.2163 61.4959 35.0214L69.5595 12.5268H75.233L82.7813 34.4026H78.801L77.2648 30.2223C77.1814 29.9885 76.9606 29.8326 76.7102 29.8326H68.1706C67.9252 29.8374 67.7043 29.9933 67.6209 30.2175Z" fill="#55FF00"/>
<path d="M68.5043 30.5342L68.4994 30.539L68.5043 30.5342ZM76.3863 30.5439V30.539V30.5439ZM75.1594 12.2978C75.1594 12.3027 75.1594 12.3027 75.1643 12.3075C75.1594 12.3075 75.1594 12.3027 75.1594 12.2978ZM69.6478 12.3075V12.3027V12.3075ZM67.6209 30.2175L66.0798 34.4026H63.6799C63.4198 34.4026 63.2136 34.6121 63.2136 34.8655C63.2136 35.1237 63.4247 35.3332 63.6799 35.3332H66.4038C66.6001 35.3332 66.7767 35.2114 66.8406 35.0263L68.4111 30.7583H76.4649L78.0059 34.9483C78.0894 35.1773 78.3151 35.3283 78.5556 35.3283H83.2671C83.4585 35.3283 83.6352 35.2358 83.7432 35.0847C83.8561 34.9337 83.8855 34.7339 83.8217 34.5537L76.0379 11.9957C75.9593 11.757 75.7385 11.5962 75.4784 11.5962H69.3092C69.0589 11.5962 68.8331 11.7521 68.7546 11.986L60.6125 34.7096C60.5241 34.9532 60.6517 35.2163 60.8971 35.304C60.9511 35.3235 61.0002 35.3332 61.0542 35.3332C61.2456 35.3332 61.4272 35.2163 61.4959 35.0214L69.5595 12.5268H75.233L82.7813 34.4026H78.801L77.2648 30.2223C77.1814 29.9885 76.9605 29.8326 76.7102 29.8326H68.1706C67.9252 29.8374 67.7043 29.9933 67.6209 30.2175Z" stroke="#55FF00" stroke-width="0.958568" stroke-miterlimit="10"/>
<path d="M75.4831 26.3052C75.5519 26.4952 75.7334 26.6073 75.9199 26.6073C75.9739 26.6073 76.0279 26.5975 76.0819 26.578C76.3273 26.4903 76.45 26.2224 76.3567 25.9836L72.8084 16.4489C72.72 16.215 72.4697 16.0445 72.244 16.0688C71.9937 16.0737 71.7728 16.2345 71.6992 16.4732L68.6122 25.8472C68.5533 26.0275 68.5827 26.2224 68.6956 26.3734C68.8036 26.5244 68.9851 26.617 69.1716 26.617H73.1421C73.3973 26.617 73.6083 26.4075 73.6083 26.1542C73.6083 25.8959 73.3973 25.6913 73.1421 25.6913H69.6526L72.2783 17.7108L75.4831 26.3052Z" fill="#55FF00"/>
<path d="M75.4831 26.3052C75.5519 26.4952 75.7334 26.6073 75.9199 26.6073C75.9739 26.6073 76.0279 26.5975 76.0819 26.578C76.3273 26.4903 76.45 26.2224 76.3567 25.9836L72.8084 16.4489C72.72 16.215 72.4697 16.0445 72.244 16.0688C71.9937 16.0737 71.7728 16.2345 71.6992 16.4732L68.6122 25.8472C68.5533 26.0275 68.5827 26.2224 68.6956 26.3734C68.8036 26.5244 68.9851 26.617 69.1716 26.617H73.1421C73.3973 26.617 73.6083 26.4075 73.6083 26.1542C73.6083 25.8959 73.3973 25.6913 73.1421 25.6913H69.6526L72.2783 17.7108L75.4831 26.3052Z" stroke="#55FF00" stroke-width="0.958568" stroke-miterlimit="10"/>
<path d="M90.0456 11.6057C89.7855 11.6057 89.5793 11.8103 89.5793 12.0686V34.6801C89.5793 35.0406 89.8738 35.333 90.237 35.333H98.281C105.751 35.333 110.963 30.3244 110.963 23.1478C110.963 15.9906 103.851 11.6008 98.7521 11.6008H92.9265C92.6664 11.6008 92.4603 11.8055 92.4603 12.0637C92.4603 12.3219 92.6713 12.5265 92.9265 12.5265H98.7521C103.459 12.5265 110.025 16.5655 110.025 23.1478C110.025 29.8811 105.304 34.4024 98.281 34.4024H90.5118V12.0686C90.5167 11.8103 90.3057 11.6057 90.0456 11.6057Z" fill="#55FF00"/>
<path d="M99.4734 29.8372H97.9372C97.6771 29.8372 97.466 30.0467 97.466 30.3001C97.466 30.5583 97.6771 30.7629 97.9372 30.7629H99.4734C102.256 30.7629 106.138 28.0589 106.138 23.6594C106.138 19.2501 103.297 16.1709 99.223 16.1709H95.0661C94.7029 16.1709 94.4084 16.4632 94.4084 16.8238V30.2075C94.4084 30.4657 94.6195 30.6752 94.8747 30.6752C95.1348 30.6752 95.3458 30.4657 95.3458 30.2075V17.1015H99.228C102.801 17.1015 105.206 19.7373 105.206 23.6594C105.201 27.7714 101.53 29.8372 99.4734 29.8372Z" fill="#55FF00"/>
<path d="M90.0458 11.6057C89.7857 11.6057 89.5796 11.8103 89.5796 12.0686V34.6801C89.5796 35.0406 89.8741 35.333 90.2372 35.333H98.2812C105.751 35.333 110.963 30.3244 110.963 23.1478C110.963 15.9906 103.852 11.6008 98.7524 11.6008H92.9267C92.6666 11.6008 92.4605 11.8055 92.4605 12.0637C92.4605 12.3219 92.6715 12.5265 92.9267 12.5265H98.7524C103.459 12.5265 110.026 16.5655 110.026 23.1478C110.026 29.8811 105.304 34.4024 98.2812 34.4024H90.5121V12.0686C90.517 11.8103 90.306 11.6057 90.0458 11.6057Z" stroke="#55FF00" stroke-width="0.958568" stroke-miterlimit="10"/>
<path d="M99.4736 29.8372H97.9374C97.6773 29.8372 97.4663 30.0467 97.4663 30.3001C97.4663 30.5583 97.6773 30.7629 97.9374 30.7629H99.4736C102.256 30.7629 106.138 28.0589 106.138 23.6594C106.138 19.2501 103.297 16.1709 99.2233 16.1709H95.0663C94.7032 16.1709 94.4087 16.4632 94.4087 16.8238V30.2075C94.4087 30.4657 94.6197 30.6752 94.8749 30.6752C95.1351 30.6752 95.3461 30.4657 95.3461 30.2075V17.1015H99.2282C102.801 17.1015 105.206 19.7373 105.206 23.6594C105.201 27.7714 101.53 29.8372 99.4736 29.8372Z" stroke="#55FF00" stroke-width="0.958568" stroke-miterlimit="10"/>
<path d="M116.744 34.8701C116.744 35.1283 116.955 35.333 117.21 35.333H122.363C122.624 35.333 122.835 35.1235 122.835 34.8701V27.5424H126.437L131.006 35.1089C131.09 35.2501 131.242 35.333 131.409 35.333H136.861C137.028 35.333 137.18 35.2453 137.264 35.0991C137.347 34.9578 137.347 34.7775 137.264 34.6363L132.537 26.4754C133.647 25.7446 136.464 23.5229 136.464 19.7665C136.464 14.5777 133.563 11.6008 128.503 11.6008H117.49C117.23 11.6008 117.024 11.8055 117.024 12.0637V32.0881C117.024 32.3464 117.235 32.551 117.49 32.551C117.75 32.551 117.956 32.3415 117.956 32.0881V12.5314H128.508C134.618 12.5314 135.531 17.0674 135.531 19.7665C135.531 23.6496 132.071 25.691 131.678 25.9103C131.571 25.9687 131.492 26.0711 131.458 26.1929C131.423 26.3147 131.443 26.4413 131.502 26.5485L136.051 34.4024H131.674L127.099 26.836C127.016 26.6947 126.864 26.6119 126.697 26.6119H122.363C122.103 26.6119 121.897 26.8214 121.897 27.0747V34.4024H117.21C116.955 34.4073 116.744 34.6168 116.744 34.8701Z" fill="#55FF00"/>
<path d="M122.059 18.4951C121.799 18.4951 121.588 18.6998 121.588 18.958V22.9775C121.588 23.2357 121.799 23.4403 122.059 23.4403H126.707C129.803 23.4403 131.187 21.4233 131.187 19.4257C131.187 17.1066 129.646 15.6644 127.163 15.6644H122.059C121.799 15.6644 121.588 15.8739 121.588 16.1322C121.588 16.3904 121.799 16.595 122.059 16.595H127.163C129.126 16.595 130.25 17.6279 130.25 19.4257C130.25 20.9166 129.318 22.5098 126.702 22.5098H122.525V18.958C122.525 18.6998 122.314 18.4951 122.059 18.4951Z" fill="#55FF00"/>
<path d="M116.744 34.8701C116.744 35.1283 116.955 35.333 117.21 35.333H122.363C122.624 35.333 122.835 35.1235 122.835 34.8701V27.5424H126.437L131.006 35.1089C131.09 35.2501 131.242 35.333 131.409 35.333H136.861C137.028 35.333 137.18 35.2453 137.264 35.0991C137.347 34.9578 137.347 34.7775 137.264 34.6363L132.537 26.4754C133.647 25.7446 136.464 23.5229 136.464 19.7665C136.464 14.5777 133.563 11.6008 128.503 11.6008H117.49C117.23 11.6008 117.024 11.8055 117.024 12.0637V32.0881C117.024 32.3464 117.235 32.551 117.49 32.551C117.75 32.551 117.956 32.3415 117.956 32.0881V12.5314H128.508C134.618 12.5314 135.531 17.0674 135.531 19.7665C135.531 23.6496 132.071 25.691 131.678 25.9103C131.571 25.9687 131.492 26.0711 131.458 26.1929C131.423 26.3147 131.443 26.4413 131.502 26.5485L136.051 34.4024H131.674L127.099 26.836C127.016 26.6947 126.864 26.6119 126.697 26.6119H122.363C122.103 26.6119 121.897 26.8214 121.897 27.0747V34.4024H117.21C116.955 34.4073 116.744 34.6168 116.744 34.8701Z" stroke="#55FF00" stroke-width="0.958568" stroke-miterlimit="10"/>
<path d="M122.059 18.4951C121.799 18.4951 121.588 18.6998 121.588 18.958V22.9775C121.588 23.2357 121.799 23.4403 122.059 23.4403H126.707C129.803 23.4403 131.187 21.4233 131.187 19.4257C131.187 17.1066 129.646 15.6644 127.163 15.6644H122.059C121.799 15.6644 121.588 15.8739 121.588 16.1322C121.588 16.3904 121.799 16.595 122.059 16.595H127.163C129.126 16.595 130.25 17.6279 130.25 19.4257C130.25 20.9166 129.318 22.5098 126.702 22.5098H122.525V18.958C122.525 18.6998 122.314 18.4951 122.059 18.4951Z" stroke="#55FF00" stroke-width="0.958568" stroke-miterlimit="10"/>
<path d="M186.525 16.9505C188.738 16.9505 190.799 18.0419 192.041 19.864C192.144 20.0151 192.331 20.0882 192.507 20.0589L197.616 19.1819C197.759 19.1576 197.881 19.0699 197.95 18.9432C198.019 18.8165 198.024 18.6655 197.965 18.534C195.962 14.0419 191.472 11.1381 186.525 11.1381C182.196 11.1381 178.235 13.311 175.928 16.9554C173.558 20.6972 173.386 25.2965 175.452 29.5645C176.508 31.7423 178.304 33.5158 180.508 34.5584C182.471 35.489 184.522 35.9567 186.539 35.9567C188.031 35.9567 189.499 35.6985 190.897 35.182C194.058 34.0127 196.649 31.5766 197.994 28.5023C198.053 28.3708 198.043 28.2197 197.979 28.0931C197.911 27.9664 197.788 27.8787 197.646 27.8543L194.981 27.3964C194.73 27.3525 194.485 27.523 194.441 27.7764C194.397 28.0297 194.569 28.2685 194.824 28.3123L196.89 28.668C195.589 31.2551 193.317 33.2965 190.578 34.3099C187.536 35.4402 184.11 35.2307 180.925 33.7204C178.912 32.7654 177.273 31.1479 176.311 29.1601C174.383 25.1844 174.54 20.9164 176.733 17.4475C178.868 14.076 182.53 12.0638 186.534 12.0638C190.907 12.0638 194.897 14.5193 196.86 18.3634L192.65 19.0845C191.221 17.1551 188.959 16.0102 186.534 16.0102C183.884 16.0102 181.469 17.3452 180.076 19.5863C178.638 21.8909 178.569 24.7069 179.879 27.3135C180.478 28.5023 181.44 29.4816 182.598 30.0809C187.001 32.3513 190.986 30.4658 192.831 27.752C192.973 27.5376 192.919 27.2502 192.704 27.1089C192.492 26.9676 192.198 27.0212 192.056 27.2356C190.436 29.618 186.917 31.2648 183.035 29.2575C182.053 28.7508 181.229 27.9128 180.723 26.8994C179.56 24.59 179.614 22.1004 180.876 20.0735C182.083 18.1247 184.203 16.9505 186.525 16.9505Z" fill="#55FF00"/>
<path d="M186.525 16.9505C188.738 16.9505 190.799 18.0419 192.041 19.864C192.144 20.0151 192.331 20.0882 192.507 20.0589L197.616 19.1819C197.759 19.1576 197.881 19.0699 197.95 18.9432C198.019 18.8165 198.024 18.6655 197.965 18.534C195.962 14.0419 191.472 11.1381 186.525 11.1381C182.196 11.1381 178.235 13.311 175.928 16.9554C173.558 20.6972 173.386 25.2965 175.452 29.5645C176.508 31.7423 178.304 33.5158 180.508 34.5584C182.471 35.489 184.522 35.9567 186.539 35.9567C188.031 35.9567 189.499 35.6985 190.897 35.182C194.058 34.0127 196.649 31.5766 197.994 28.5023C198.053 28.3708 198.043 28.2197 197.979 28.0931C197.911 27.9664 197.788 27.8787 197.646 27.8543L194.981 27.3964C194.73 27.3525 194.485 27.523 194.441 27.7764C194.397 28.0297 194.569 28.2685 194.824 28.3123L196.89 28.668C195.589 31.2551 193.317 33.2965 190.578 34.3099C187.536 35.4402 184.11 35.2307 180.925 33.7204C178.912 32.7654 177.273 31.1479 176.311 29.1601C174.383 25.1844 174.54 20.9164 176.733 17.4475C178.868 14.076 182.53 12.0638 186.534 12.0638C190.907 12.0638 194.897 14.5193 196.86 18.3634L192.65 19.0845C191.221 17.1551 188.959 16.0102 186.534 16.0102C183.884 16.0102 181.469 17.3452 180.076 19.5863C178.638 21.8909 178.569 24.7069 179.879 27.3135C180.478 28.5023 181.44 29.4816 182.598 30.0809C187.001 32.3513 190.986 30.4658 192.831 27.752C192.973 27.5376 192.919 27.2502 192.704 27.1089C192.492 26.9676 192.198 27.0212 192.056 27.2356C190.436 29.618 186.917 31.2648 183.035 29.2575C182.053 28.7508 181.229 27.9128 180.723 26.8994C179.56 24.59 179.614 22.1004 180.876 20.0735C182.083 18.1247 184.203 16.9505 186.525 16.9505Z" stroke="#55FF00" stroke-width="0.958568" stroke-miterlimit="10"/>
<path d="M208.997 11.1429H203.839C203.584 11.1429 203.373 11.3476 203.373 11.6058C203.373 11.864 203.584 12.0686 203.839 12.0686H208.531V20.7508C208.531 21.009 208.742 21.2136 208.997 21.2136H212.781C212.953 21.2136 213.115 21.1162 213.193 20.9652L218.018 11.8494H222.641L216.197 23.2745C216.113 23.4158 216.118 23.5961 216.202 23.7374L222.621 34.5876H218.278L212.707 25.5255C212.624 25.389 212.472 25.3013 212.31 25.3013H208.992C208.732 25.3013 208.526 25.5109 208.526 25.7691V34.5876H204.531V14.7142C204.531 14.456 204.32 14.2514 204.065 14.2514C203.809 14.2514 203.598 14.4609 203.598 14.7142V35.0505C203.598 35.3087 203.809 35.5133 204.065 35.5133H208.997C209.257 35.5133 209.468 35.3038 209.468 35.0505V26.2319H212.05L217.62 35.2941C217.703 35.4305 217.856 35.5182 218.018 35.5182H223.441C223.608 35.5182 223.765 35.4305 223.848 35.2843C223.932 35.1382 223.932 34.9628 223.843 34.8166L217.144 23.4938L223.848 11.6107C223.932 11.4645 223.927 11.2891 223.843 11.1478C223.76 11.0065 223.603 10.9188 223.441 10.9188H217.733C217.561 10.9188 217.399 11.0163 217.321 11.1673L212.496 20.2831H209.463V11.6058C209.468 11.3476 209.257 11.1429 208.997 11.1429Z" fill="#55FF00"/>
<path d="M208.997 11.1429H203.839C203.584 11.1429 203.373 11.3476 203.373 11.6058C203.373 11.864 203.584 12.0686 203.839 12.0686H208.531V20.7508C208.531 21.009 208.742 21.2136 208.997 21.2136H212.781C212.953 21.2136 213.115 21.1162 213.193 20.9652L218.018 11.8494H222.641L216.197 23.2745C216.113 23.4158 216.118 23.5961 216.202 23.7374L222.621 34.5876H218.278L212.707 25.5255C212.624 25.389 212.472 25.3013 212.31 25.3013H208.992C208.732 25.3013 208.526 25.5109 208.526 25.7691V34.5876H204.531V14.7142C204.531 14.456 204.32 14.2514 204.065 14.2514C203.809 14.2514 203.598 14.4609 203.598 14.7142V35.0505C203.598 35.3087 203.809 35.5133 204.065 35.5133H208.997C209.257 35.5133 209.468 35.3038 209.468 35.0505V26.2319H212.05L217.62 35.2941C217.703 35.4305 217.856 35.5182 218.018 35.5182H223.441C223.608 35.5182 223.765 35.4305 223.848 35.2843C223.932 35.1382 223.932 34.9628 223.843 34.8166L217.144 23.4938L223.848 11.6107C223.932 11.4645 223.927 11.2891 223.843 11.1478C223.76 11.0065 223.603 10.9188 223.441 10.9188H217.733C217.561 10.9188 217.399 11.0163 217.321 11.1673L212.496 20.2831H209.463V11.6058C209.468 11.3476 209.257 11.1429 208.997 11.1429Z" stroke="#55FF00" stroke-width="0.958568" stroke-miterlimit="10"/>
<path d="M155.62 30.1591C152.449 30.1591 149.706 27.9227 149.097 24.8387C149.043 24.5853 148.793 24.4246 148.547 24.4733C148.297 24.522 148.13 24.7656 148.179 25.019C148.876 28.5366 152.007 31.0848 155.624 31.0848C159.811 31.0848 163.212 27.7035 163.212 23.5524C163.212 19.3965 159.806 16.0153 155.624 16.0153C152.007 16.0153 148.881 18.5683 148.179 22.0811C148.13 22.3344 148.297 22.578 148.547 22.6267C148.803 22.6755 149.048 22.5147 149.097 22.2613C149.71 19.1773 152.454 16.941 155.62 16.941C159.286 16.941 162.27 19.9032 162.27 23.5476C162.27 27.1968 159.286 30.1591 155.62 30.1591Z" fill="#55FF00"/>
<path d="M167.104 22.2319C167.133 22.4853 167.364 22.6704 167.624 22.6412C167.884 22.6119 168.066 22.3829 168.036 22.1247C167.315 15.864 161.975 11.1381 155.619 11.1381C148.724 11.1381 143.114 16.7069 143.114 23.5522C143.114 30.3976 148.724 35.9664 155.619 35.9664C161.975 35.9664 167.31 31.2453 168.036 24.9798C168.066 24.7264 167.884 24.4926 167.624 24.4633C167.364 24.439 167.138 24.6144 167.104 24.8726C166.436 30.6656 161.494 35.031 155.619 35.031C149.244 35.031 144.052 29.8763 144.052 23.5474C144.052 17.2136 149.244 12.0638 155.619 12.0638C161.494 12.0735 166.431 16.4389 167.104 22.2319Z" fill="#55FF00"/>
<path d="M155.62 30.1591C152.449 30.1591 149.706 27.9227 149.097 24.8387C149.043 24.5853 148.793 24.4246 148.547 24.4733C148.297 24.522 148.13 24.7656 148.179 25.019C148.876 28.5366 152.007 31.0848 155.624 31.0848C159.811 31.0848 163.212 27.7035 163.212 23.5524C163.212 19.3965 159.806 16.0153 155.624 16.0153C152.007 16.0153 148.881 18.5683 148.179 22.0811C148.13 22.3344 148.297 22.578 148.547 22.6267C148.803 22.6755 149.048 22.5147 149.097 22.2613C149.71 19.1773 152.454 16.941 155.62 16.941C159.286 16.941 162.27 19.9032 162.27 23.5476C162.27 27.1968 159.286 30.1591 155.62 30.1591Z" stroke="#55FF00" stroke-width="0.958568" stroke-miterlimit="10"/>
<path d="M167.104 22.2319C167.133 22.4853 167.364 22.6704 167.624 22.6412C167.884 22.6119 168.066 22.3829 168.036 22.1247C167.315 15.864 161.975 11.1381 155.619 11.1381C148.724 11.1381 143.114 16.7069 143.114 23.5522C143.114 30.3976 148.724 35.9664 155.619 35.9664C161.975 35.9664 167.31 31.2453 168.036 24.9798C168.066 24.7264 167.884 24.4926 167.624 24.4633C167.364 24.439 167.138 24.6144 167.104 24.8726C166.436 30.6656 161.494 35.031 155.619 35.031C149.244 35.031 144.052 29.8763 144.052 23.5474C144.052 17.2136 149.244 12.0638 155.619 12.0638C161.494 12.0735 166.431 16.4389 167.104 22.2319Z" stroke="#55FF00" stroke-width="0.958568" stroke-miterlimit="10"/>
<path d="M55.4846 47.6935L55.1165 48.7994H53.7275L55.8134 43.0065H57.2023L59.2881 48.7994H57.8992L57.5311 47.6935H55.4846ZM57.1532 46.5436L56.5054 44.6143L55.8575 46.5436H57.1532Z" fill="#55FF00"/>
<path d="M60.0688 43.0016H64.0982V44.2878H61.4136V45.4815H63.5927V46.7726H61.4136V48.7945H60.0688V43.0016Z" fill="#55FF00"/>
<path d="M65.1672 43.0016H69.1966V44.2878H66.512V45.4815H68.6911V46.7726H66.512V48.7945H65.1672V43.0016Z" fill="#55FF00"/>
<path d="M71.607 48.7945H70.2622V43.0016H71.607V48.7945Z" fill="#55FF00"/>
<path d="M72.9958 43.0016H74.3406V47.5083H76.981V48.7945H72.9958V43.0016Z" fill="#55FF00"/>
<path d="M79.2483 48.7945H77.9036V43.0016H79.2483V48.7945Z" fill="#55FF00"/>
<path d="M81.7951 47.6935L81.427 48.7994H80.0381L82.1239 43.0065H83.5128L85.5987 48.7994H84.2098L83.8417 47.6935H81.7951ZM83.4638 46.5436L82.8159 44.6143L82.1681 46.5436H83.4638Z" fill="#55FF00"/>
<path d="M88.5581 48.7945H87.2133V44.2878H85.5447V43.0016H90.2219V44.2878H88.5532V48.7945H88.5581Z" fill="#55FF00"/>
<path d="M91.1548 43.0016H95.3265V44.2878H92.4995V45.2087H95.0958V46.4949H92.4995V47.5083H95.4197V48.7945H91.1597V43.0016H91.1548Z" fill="#55FF00"/>
<path d="M100.421 48.7946L99.8175 48.1953C99.6899 48.322 99.5378 48.4389 99.3709 48.5461C99.2286 48.6338 99.0519 48.7118 98.8409 48.78C98.6298 48.8482 98.3844 48.8872 98.1047 48.8872C97.8249 48.8872 97.5795 48.8482 97.3587 48.7702C97.1378 48.6923 96.9563 48.59 96.809 48.4584C96.6618 48.3269 96.5489 48.171 96.4655 47.9956C96.3869 47.8202 96.3428 47.6253 96.3428 47.4158C96.3428 47.1527 96.3968 46.9188 96.5047 46.7191C96.6127 46.5144 96.7354 46.3488 96.8728 46.2124C97.0348 46.0516 97.2115 45.92 97.4078 45.808L97.128 45.4864C97.0888 45.4426 97.0446 45.389 96.9906 45.3208C96.9366 45.2525 96.8826 45.1746 96.8385 45.0869C96.7943 44.9992 96.7501 44.8969 96.7158 44.78C96.6814 44.663 96.6667 44.5315 96.6667 44.3853C96.6667 44.2002 96.706 44.0248 96.7894 43.8542C96.8728 43.6837 96.9857 43.5327 97.128 43.4011C97.2704 43.2696 97.4421 43.1624 97.6384 43.0844C97.8348 43.0065 98.0507 42.9626 98.2863 42.9626C98.517 42.9626 98.728 43.0016 98.9292 43.0844C99.1304 43.1624 99.3022 43.2696 99.4445 43.4011C99.5869 43.5327 99.6997 43.6837 99.7832 43.8542C99.8666 44.0248 99.9059 44.205 99.9059 44.3853C99.9059 44.5315 99.8862 44.663 99.8519 44.78C99.8126 44.8969 99.7685 44.9992 99.7194 45.082C99.6654 45.1697 99.6114 45.2379 99.5525 45.2964C99.4936 45.3549 99.4445 45.4036 99.4004 45.4377L98.939 45.8031L99.6801 46.5388L100.097 45.9395H101.535L100.514 47.3671L101.952 48.7946H100.421ZM98.2421 47.6935C98.3452 47.6935 98.4433 47.674 98.5268 47.6399C98.6102 47.6009 98.6838 47.5619 98.7427 47.5132C98.8114 47.4596 98.8752 47.3963 98.939 47.3281L98.1047 46.4998C98.0262 46.5632 97.9525 46.6265 97.8937 46.6947C97.8446 46.758 97.7955 46.8262 97.7562 46.9091C97.7121 46.9919 97.6924 47.0845 97.6924 47.1917C97.6924 47.3329 97.7464 47.4547 97.8495 47.5522C97.9476 47.6399 98.0801 47.6935 98.2421 47.6935ZM98.2421 45.16C98.4041 45.043 98.5268 44.9359 98.6151 44.8335C98.7035 44.7312 98.7476 44.6094 98.7476 44.4681C98.7476 44.3074 98.7084 44.1856 98.6249 44.0979C98.5415 44.0102 98.4286 43.9663 98.2863 43.9663C98.144 43.9663 98.0311 44.0102 97.9476 44.0979C97.8642 44.1856 97.8249 44.3122 97.8249 44.4681C97.8249 44.6094 97.8642 44.7312 97.9476 44.8335C98.0262 44.9359 98.1243 45.0479 98.2421 45.16Z" fill="#55FF00"/>
<path d="M102.085 44.6094C102.085 44.3902 102.134 44.1807 102.227 43.9809C102.325 43.7811 102.463 43.6057 102.639 43.4547C102.821 43.3037 103.037 43.1819 103.292 43.0893C103.547 42.9967 103.842 42.9529 104.166 42.9529C104.48 42.9529 104.764 42.9967 105.015 43.0893C105.265 43.1819 105.476 43.3085 105.653 43.4742C105.829 43.6399 105.962 43.8347 106.06 44.0589C106.158 44.283 106.202 44.5266 106.202 44.7897L104.907 44.8822C104.907 44.6484 104.843 44.4681 104.71 44.3414C104.583 44.2148 104.396 44.1466 104.166 44.1466C103.955 44.1466 103.788 44.205 103.66 44.3171C103.533 44.4291 103.469 44.5558 103.469 44.6971C103.469 44.8384 103.537 44.9456 103.68 45.0187C103.822 45.0917 103.999 45.16 104.21 45.2233C104.421 45.2866 104.652 45.3548 104.902 45.4279C105.147 45.501 105.378 45.6082 105.594 45.7397C105.805 45.8762 105.987 46.0516 106.124 46.2757C106.261 46.4998 106.335 46.7824 106.335 47.1283C106.335 47.3622 106.286 47.5814 106.193 47.786C106.099 47.9907 105.957 48.1709 105.771 48.322C105.584 48.4779 105.358 48.5997 105.083 48.6923C104.814 48.7848 104.504 48.8287 104.156 48.8287C103.822 48.8287 103.523 48.7848 103.258 48.6923C102.993 48.5997 102.767 48.4681 102.585 48.3025C102.404 48.132 102.266 47.9371 102.168 47.7032C102.07 47.4742 102.026 47.2209 102.026 46.9432L103.322 46.8506C103.322 47.3719 103.601 47.6301 104.156 47.6301C104.416 47.6301 104.612 47.5717 104.745 47.4499C104.877 47.3281 104.946 47.1916 104.946 47.0309C104.946 46.8847 104.877 46.7726 104.735 46.6898C104.593 46.6119 104.416 46.5388 104.2 46.4706C103.984 46.4023 103.758 46.3341 103.508 46.2611C103.263 46.188 103.032 46.0857 102.816 45.9541C102.605 45.8226 102.423 45.6472 102.281 45.4328C102.139 45.2184 102.085 44.9553 102.085 44.6094Z" fill="#55FF00"/>
<path d="M107.459 43.0016H111.63V44.2878H108.803V45.2087H111.4V46.4949H108.803V47.5083H111.724V48.7945H107.464V43.0016H107.459Z" fill="#55FF00"/>
<path d="M115.292 43.0016C115.596 43.0016 115.871 43.0503 116.121 43.1477C116.371 43.2452 116.587 43.3767 116.764 43.5424C116.941 43.708 117.083 43.9029 117.181 44.127C117.279 44.3512 117.328 44.5899 117.328 44.8384C117.328 45.1648 117.269 45.4376 117.157 45.6569C117.044 45.8761 116.916 46.0564 116.779 46.1928C116.641 46.3292 116.455 46.4608 116.219 46.5826L117.515 48.7897H116.033L114.968 46.8603H114.271V48.7897H112.926V43.0016H115.292ZM115.292 45.5741C115.527 45.5741 115.709 45.5107 115.836 45.3889C115.964 45.2671 116.033 45.1112 116.033 44.9309C116.033 44.7507 115.969 44.5948 115.836 44.473C115.709 44.3512 115.522 44.2878 115.292 44.2878H114.271V45.5741H115.292Z" fill="#55FF00"/>
<path d="M123.257 43.0016L121.265 48.7945H119.876L117.883 43.0016H119.272L120.568 47.0016L121.863 43.0016H123.257Z" fill="#55FF00"/>
<path d="M125.48 48.7945H124.135V43.0016H125.48V48.7945Z" fill="#55FF00"/>
<path d="M129.466 47.5522C129.834 47.5522 130.128 47.4645 130.339 47.2891C130.55 47.1137 130.693 46.909 130.761 46.6801L132.15 46.7726C132.082 47.0503 131.974 47.3134 131.817 47.5619C131.66 47.8153 131.468 48.0345 131.242 48.2197C131.017 48.4048 130.752 48.5558 130.452 48.6679C130.153 48.7799 129.824 48.8384 129.466 48.8384C129.068 48.8384 128.7 48.7653 128.347 48.6143C127.993 48.4633 127.694 48.2538 127.434 47.9907C127.174 47.7227 126.968 47.4109 126.82 47.0552C126.668 46.6995 126.595 46.3146 126.595 45.8956C126.595 45.4864 126.668 45.1015 126.82 44.741C126.973 44.3804 127.179 44.0686 127.434 43.8006C127.689 43.5327 127.998 43.3232 128.347 43.177C128.695 43.026 129.068 42.9529 129.466 42.9529C129.809 42.9529 130.133 43.0113 130.423 43.1234C130.717 43.2355 130.977 43.3865 131.203 43.5765C131.429 43.7617 131.62 43.9809 131.773 44.2342C131.925 44.4876 132.038 44.7507 132.106 45.0235L130.717 45.1161C130.678 44.9992 130.629 44.8871 130.56 44.7848C130.492 44.6825 130.403 44.5899 130.3 44.5071C130.197 44.4291 130.074 44.3609 129.932 44.3122C129.79 44.2635 129.638 44.2391 129.466 44.2391C129.255 44.2391 129.058 44.2781 128.872 44.3609C128.685 44.4438 128.524 44.5607 128.386 44.7068C128.249 44.853 128.136 45.0284 128.057 45.233C127.979 45.4377 127.935 45.6569 127.935 45.8956C127.935 46.1344 127.974 46.3536 128.057 46.5583C128.136 46.7629 128.249 46.9334 128.386 47.0844C128.524 47.2306 128.685 47.3475 128.872 47.4304C129.058 47.5132 129.255 47.5522 129.466 47.5522Z" fill="#55FF00"/>
<path d="M133.17 43.0016H137.342V44.2878H134.515V45.2087H137.111V46.4949H134.515V47.5083H137.435V48.7945H133.175V43.0016H133.17Z" fill="#55FF00"/>
<path d="M145.956 43.0016V48.7945H144.754L142.393 45.3938V48.7945H141.048V43.0016H142.251L144.611 46.4023V43.0016H145.956Z" fill="#55FF00"/>
<path d="M147.345 43.0016H151.516V44.2878H148.689V45.2087H151.286V46.4949H148.689V47.5083H151.61V48.7945H147.35V43.0016H147.345Z" fill="#55FF00"/>
<path d="M155.359 48.7945H154.015V44.2878H152.346V43.0016H157.023V44.2878H155.354V48.7945H155.359Z" fill="#55FF00"/>
<path d="M160.316 48.7945H159.295L157.44 43.0016H158.736L159.85 46.5875L160.959 43.0016H161.793L162.907 46.5875L164.021 43.0016H165.317L163.462 48.7945H162.441L161.376 45.3938L160.316 48.7945Z" fill="#55FF00"/>
<path d="M171.575 45.8956C171.575 46.3146 171.501 46.6995 171.349 47.0552C171.197 47.4109 170.991 47.7227 170.735 47.9907C170.475 48.2586 170.171 48.4633 169.823 48.6143C169.474 48.7653 169.101 48.8384 168.709 48.8384C168.311 48.8384 167.943 48.7653 167.59 48.6143C167.236 48.4633 166.937 48.2538 166.677 47.9907C166.417 47.7227 166.21 47.4109 166.063 47.0552C165.911 46.6995 165.837 46.3146 165.837 45.8956C165.837 45.4864 165.911 45.1015 166.063 44.741C166.215 44.3804 166.421 44.0686 166.677 43.8006C166.932 43.5327 167.241 43.3232 167.59 43.177C167.938 43.026 168.311 42.9529 168.709 42.9529C169.101 42.9529 169.474 43.026 169.823 43.177C170.171 43.328 170.475 43.5375 170.735 43.8006C170.996 44.0637 171.202 44.3804 171.349 44.741C171.496 45.1015 171.575 45.4864 171.575 45.8956ZM170.23 45.8956C170.23 45.6569 170.191 45.4377 170.107 45.233C170.029 45.0284 169.916 44.8579 169.778 44.7068C169.641 44.5558 169.479 44.4438 169.293 44.3609C169.106 44.2781 168.91 44.2391 168.699 44.2391C168.488 44.2391 168.291 44.2781 168.105 44.3609C167.918 44.4438 167.756 44.5607 167.619 44.7068C167.482 44.853 167.369 45.0284 167.29 45.233C167.212 45.4377 167.167 45.6569 167.167 45.8956C167.167 46.1344 167.207 46.3536 167.29 46.5583C167.369 46.7629 167.482 46.9334 167.619 47.0844C167.756 47.2306 167.918 47.3475 168.105 47.4304C168.291 47.5132 168.488 47.5522 168.699 47.5522C168.91 47.5522 169.106 47.5132 169.293 47.4304C169.479 47.3475 169.641 47.2306 169.778 47.0844C169.916 46.9383 170.029 46.7629 170.107 46.5583C170.191 46.3585 170.23 46.1393 170.23 45.8956Z" fill="#55FF00"/>
<path d="M175.05 43.0016C175.354 43.0016 175.629 43.0503 175.879 43.1477C176.13 43.2452 176.346 43.3767 176.522 43.5424C176.699 43.708 176.841 43.9029 176.939 44.127C177.038 44.3512 177.087 44.5899 177.087 44.8384C177.087 45.1648 177.028 45.4376 176.915 45.6569C176.802 45.8761 176.674 46.0564 176.537 46.1928C176.4 46.3292 176.213 46.4608 175.977 46.5826L177.273 48.7897H175.791L174.726 46.8603H174.029V48.7897H172.684V43.0016H175.05ZM175.05 45.5741C175.285 45.5741 175.467 45.5107 175.595 45.3889C175.722 45.2671 175.791 45.1112 175.791 44.9309C175.791 44.7507 175.727 44.5948 175.595 44.473C175.467 44.3512 175.281 44.2878 175.05 44.2878H174.029V45.5741H175.05Z" fill="#55FF00"/>
<path d="M181.489 48.7945L179.589 46.2172V48.7945H178.245V43.0016H179.589V45.4864L181.351 43.0016H182.878L180.821 45.8518L183.015 48.7945H181.489Z" fill="#55FF00"/>
<path d="M1.38477 43.4693V0.794312H235.597V46.5631H189.989" stroke="#55FF00" stroke-width="2.4" stroke-miterlimit="10" stroke-linecap="round" stroke-linejoin="round"/>
<path d="M47.3763 46.5631H1.38477" stroke="#55FF00" stroke-width="2" stroke-miterlimit="10" stroke-linecap="round" stroke-linejoin="round"/>
</g>
<defs>
<clipPath id="clip0_263_11">
<rect width="235.808" height="48.8869" fill="white" transform="translate(0.584961)"/>
</clipPath>
</defs>
</svg>
