<svg width="105" height="105" viewBox="0 0 105 105" fill="none" xmlns="http://www.w3.org/2000/svg">
<path fill-rule="evenodd" clip-rule="evenodd" d="M71.6856 5.14729C45.6609 -5.33712 16.0645 7.26076 5.58005 33.2855C-4.90437 59.3101 7.69351 88.9066 33.7182 99.391C59.7429 109.875 89.3394 97.2776 99.8238 71.2529C110.308 45.2282 97.7103 15.6317 71.6856 5.14729ZM4.77454 32.9609C15.4382 6.49138 45.5406 -6.32185 72.0101 4.34179C98.4797 15.0054 111.293 45.1078 100.629 71.5774C89.9657 98.0469 59.8633 110.86 33.3937 100.197C6.92414 89.5329 -5.88909 59.4305 4.77454 32.9609ZM51.0588 31.9463L57.549 15.8362L58.3545 16.1608L51.8643 32.2708L51.0588 31.9463ZM67.1689 38.4364L73.659 22.3264L74.4645 22.6509L67.9744 38.761L67.1689 38.4364ZM12.8296 36.206C3.95814 58.2269 14.6179 83.2701 36.6388 92.1415C58.6597 101.013 83.7028 90.3532 92.5743 68.3323L93.3798 68.6568C84.3291 91.1226 58.78 101.998 36.3143 92.947C13.8485 83.8964 2.97342 58.3473 12.0241 35.8815L12.8296 36.206Z" fill="#55FF00" stroke="#55FF00"/>
</svg>
