<svg width="223" height="223" viewBox="0 0 223 223" fill="none" xmlns="http://www.w3.org/2000/svg">
<path d="M124.329 192.921L120.285 176.16L122.408 175.661L126.002 190.547L134.233 188.577L130.639 173.691L132.793 173.147L136.836 189.908L124.329 192.921Z" fill="#55FF00" stroke="#55FF00" stroke-width="0.4"/>
<path d="M110.759 193.729C107.734 193.721 105.275 191.27 105.276 188.387C105.277 185.504 107.717 183.023 110.763 183.02L114.438 183.011L114.431 176.454L116.631 176.461L116.634 193.728L110.759 193.729ZM110.748 184.95C108.959 184.942 107.459 186.455 107.456 188.406C107.462 190.325 108.975 191.824 110.752 191.811L114.427 191.802L114.423 184.941L110.748 184.95Z" fill="#55FF00" stroke="#55FF00" stroke-width="0.4"/>
<path d="M96.1114 174.491C100.235 175.479 103.043 180.132 101.888 184.92C100.733 189.709 96.1022 192.561 91.9677 191.552C87.8446 190.564 85.0358 185.911 86.1909 181.123C87.3461 176.334 91.9982 173.471 96.1114 174.491ZM95.6716 176.345C92.7371 175.631 89.2583 177.759 88.3287 181.631C87.3992 185.503 89.5158 188.96 92.4503 189.675C95.3848 190.39 98.8422 188.273 99.7831 184.422C100.701 180.529 98.5947 177.039 95.6716 176.345Z" fill="#55FF00" stroke="#55FF00" stroke-width="0.4"/>
<path d="M80.9712 178.743C82.8642 175.236 81.7113 171.321 79.0622 169.905C76.6653 168.602 74.2561 169.336 72.716 170.98L70.6711 169.874C73.091 167.459 76.6078 166.381 79.9723 168.212C83.7101 170.228 85.233 175.457 82.895 179.777C80.557 184.098 75.3509 185.664 71.6131 183.648C68.3697 181.889 67.3022 178.34 68.0505 175.004L70.0954 176.111C69.5229 178.282 70.2574 180.691 72.5332 181.922C75.1723 183.371 79.0883 182.218 80.9712 178.743Z" fill="#55FF00" stroke="#55FF00" stroke-width="0.4"/>
<path d="M53.4366 167.471L57.3306 170.914L67.494 159.432L69.1141 160.874L58.9506 172.357L62.8446 175.8L61.5812 177.242L52.1403 168.903L53.4366 167.471Z" fill="#55FF00" stroke="#55FF00" stroke-width="0.4"/>
<path d="M58.734 149.33C61.2084 152.788 60.3167 158.122 56.3045 161.001C52.2923 163.881 46.9361 163.001 44.4732 159.564C41.9988 156.106 42.8905 150.771 46.9027 147.892C50.8935 145.024 56.271 145.893 58.734 149.33ZM57.1913 150.454C55.4263 148.017 51.4199 147.352 48.1848 149.68C44.9497 152.008 44.3051 156.002 46.0701 158.439C47.835 160.875 51.82 161.552 55.0666 159.245C58.2803 156.929 58.9349 152.901 57.1913 150.454Z" fill="#55FF00" stroke="#55FF00" stroke-width="0.4"/>
<path d="M30.4799 127.736L47.0945 123L47.6908 125.098L32.938 129.308L35.2521 137.464L50.0049 133.254L50.6127 135.374L34.0195 140.098L30.4799 127.736Z" fill="#55FF00" stroke="#55FF00" stroke-width="0.4"/>
<path d="M46.5539 112.609C46.6205 116.856 42.8402 120.737 37.9099 120.811C32.9795 120.885 29.0771 117.117 29.0219 112.891C28.9553 108.644 32.7356 104.763 37.6659 104.689C42.5849 104.593 46.4873 108.362 46.5539 112.609ZM44.6468 112.637C44.6124 109.635 41.6774 106.807 37.7006 106.867C33.7239 106.927 30.9161 109.85 30.9618 112.873C31.0076 115.896 33.9098 118.715 37.8866 118.655C41.8406 118.552 44.6811 115.638 44.6468 112.637Z" fill="#55FF00" stroke="#55FF00" stroke-width="0.4"/>
<path d="M34.1082 88.7936L33.037 93.8942L48.0461 97.0699L47.5919 99.2062L32.5829 96.0305L31.5003 101.11L29.6147 100.714L32.2227 88.3982L34.1082 88.7936Z" fill="#55FF00" stroke="#55FF00" stroke-width="0.4"/>
<path d="M52.4799 84.4138C50.7151 88.2642 45.6144 90.1312 41.1496 88.0903C36.6849 86.0494 34.7756 80.9721 36.5504 77.0889C38.3153 73.2384 43.416 71.3715 47.8807 73.4124C52.3455 75.4533 54.2448 80.5633 52.4799 84.4138ZM50.747 83.6351C52.0096 80.9033 50.5774 77.0818 46.9791 75.4302C43.3807 73.7787 39.5801 75.1999 38.3175 77.9317C37.0549 80.6635 38.4544 84.4751 42.0741 86.1152C45.6938 87.7553 49.4844 86.3669 50.747 83.6351Z" fill="#55FF00" stroke="#55FF00" stroke-width="0.4"/>
<path d="M53.4901 52.7155L54.6481 51.3847L67.6781 62.698L66.2464 64.3394L57.4637 56.7202L62.7625 68.3646L61.8569 69.3962L49.5691 65.8137L58.3517 73.4329L56.9099 75.1071L43.8799 63.7938L45.0479 62.4302L59.7044 66.6449L53.4901 52.7155Z" fill="#55FF00" stroke="#55FF00" stroke-width="0.4"/>
<path d="M70.4145 39.9076L73.1691 54.6098C73.6853 57.3821 73.4152 59.0908 71.9666 60.0824C71.3806 60.477 70.5737 60.7147 70.5737 60.7147L69.5709 59.245C69.5709 59.245 69.9687 59.1154 70.4163 58.822C71.3217 58.2023 71.5459 57.2317 71.2628 55.9276L71.0225 54.6006L59.359 47.5008L61.3936 46.1146L70.5804 51.7614L68.5082 41.2254L70.4145 39.9076Z" fill="#55FF00" stroke="#55FF00" stroke-width="0.4"/>
<path d="M93.342 31.0412L98.3336 47.5713L96.2466 48.1892L94.3849 42.0159C94.3849 42.0159 92.9018 43.7671 90.6751 44.432C87.3835 45.4172 84.6574 43.9598 83.6369 40.5503L81.8222 34.5167L83.9092 33.8988L85.7239 39.9324C86.4356 42.2985 88.1499 43.1969 90.2369 42.579C92.3452 41.9497 93.8284 40.1985 93.8284 40.1985L91.2664 31.6805L93.342 31.0412Z" fill="#55FF00" stroke="#55FF00" stroke-width="0.4"/>
<path d="M111.746 30.9526L106.563 31.3259L107.686 46.6233L105.522 46.788L104.4 31.4905L99.2169 31.8638L99.0809 29.9596L111.632 29.0371L111.746 30.9526Z" fill="#55FF00" stroke="#55FF00" stroke-width="0.4"/>
<path d="M121.072 47.424C116.882 46.7742 113.668 42.3921 114.431 37.538C115.162 32.6738 119.545 29.4598 123.724 30.0882C127.914 30.738 131.128 35.1201 130.364 39.9743C129.623 44.817 125.251 48.0524 121.072 47.424ZM121.37 45.5086C124.33 45.9627 127.628 43.5465 128.231 39.6287C128.834 35.7109 126.408 32.4464 123.448 31.9923C120.488 31.5381 117.2 33.9215 116.608 37.8607C115.983 41.7899 118.388 45.0658 121.37 45.5086Z" fill="#55FF00" stroke="#55FF00" stroke-width="0.4"/>
<path d="M158.023 43.4934L159.563 44.3746L150.942 59.3185L149.05 58.2404L154.859 48.1715L144.428 55.5966L143.24 54.9121L144.427 42.1452L138.617 52.2142L136.713 51.1147L145.335 36.1709L146.886 37.0735L145.534 52.2619L158.023 43.4934Z" fill="#55FF00" stroke="#55FF00" stroke-width="0.4"/>
<path d="M164.213 72.8907L162.73 71.2925L175.358 59.5396L176.841 61.1377L164.213 72.8907ZM153.598 61.4712L166.226 49.7183L167.731 51.3592L162.915 55.8202L165.345 58.4234C167.397 60.6246 167.248 64.1078 165.142 66.0812C163.046 68.0217 159.553 67.9066 157.523 65.694L153.598 61.4712ZM161.529 57.1352L156.522 61.8071L158.953 64.4103C160.168 65.7119 162.283 65.7653 163.681 64.4716C165.078 63.1779 165.174 61.0401 163.981 59.7271L161.529 57.1352Z" fill="#55FF00" stroke="#55FF00" stroke-width="0.4"/>
<path d="M178.278 90.2145C175.908 91.23 172.841 90.0091 171.595 87.1041L169.021 81.036L184.901 74.3038L187.428 80.2321C188.57 82.8905 187.469 85.564 185.078 86.5908C182.794 87.5607 181.176 86.172 181.176 86.172C181.176 86.172 181.173 89.0011 178.278 90.2145ZM179.065 79.1706L180.727 83.062C181.373 84.5844 182.983 85.2362 184.259 84.6936C185.642 84.094 186.294 82.4837 185.648 80.9613L183.986 77.0699L179.065 79.1706ZM173.376 86.3749C174.126 88.1438 175.922 88.8342 177.563 88.152C179.085 87.5054 179.788 85.7312 179.037 83.9623L177.328 79.9312L171.667 82.3438L173.376 86.3749Z" fill="#55FF00" stroke="#55FF00" stroke-width="0.4"/>
<path d="M193.704 106.593L193.955 108.353L176.867 110.705L176.573 108.556L188.088 106.977L175.83 103.296L175.654 101.935L186.435 95.0646L174.92 96.6431L174.615 94.4724L191.703 92.1203L191.955 93.8805L179.138 102.137L193.704 106.593Z" fill="#55FF00" stroke="#55FF00" stroke-width="0.4"/>
<path d="M176.994 125.681L175.091 125.46L176.483 114.313L193.611 116.415L192.266 127.289L190.363 127.068L191.45 118.39L186.013 117.718L185.006 125.722L183.103 125.501L184.11 117.497L178.118 116.764L176.994 125.681Z" fill="#55FF00" stroke="#55FF00" stroke-width="0.4"/>
<path d="M182.222 132.039C178.49 130.651 174.783 132.351 173.74 135.186C172.798 137.747 173.855 140.039 175.709 141.302L174.898 143.491C172.168 141.459 170.629 138.106 171.956 134.517C173.436 130.544 178.364 128.302 182.983 130.013C187.602 131.725 189.876 136.663 188.396 140.636C187.109 144.095 183.756 145.634 180.357 145.387L181.167 143.198C183.396 143.465 185.677 142.387 186.579 139.957C187.622 137.123 185.955 133.426 182.222 132.039Z" fill="#55FF00" stroke="#55FF00" stroke-width="0.4"/>
<path d="M175.033 160.851L177.901 156.495L165.076 148.092L166.276 146.273L179.1 154.676L181.969 150.32L183.567 151.362L176.664 161.904L175.033 160.851Z" fill="#55FF00" stroke="#55FF00" stroke-width="0.4"/>
<path d="M154.225 163.181L152.868 161.818L160.869 153.903L173.023 166.149L165.245 173.863L163.887 172.5L170.101 166.334L166.25 162.456L160.522 168.144L159.164 166.781L164.892 161.093L160.629 156.803L154.225 163.181Z" fill="#55FF00" stroke="#55FF00" stroke-width="0.4"/>
<path d="M150.844 168.168L152.196 167.201L160.291 177.602L158.056 179.178L150.844 168.168ZM150.648 166.461C149.966 166.934 149.237 166.801 148.754 166.153C148.281 165.471 148.381 164.731 149.051 164.237C149.733 163.764 150.505 163.874 150.978 164.556C151.451 165.237 151.318 165.967 150.648 166.461Z" fill="#55FF00" stroke="#55FF00" stroke-width="0.4"/>
</svg>
